<?xml version="1.0" encoding="iso-8859-1"?>
<!-- Uploaded to: SVG Repo, www.svgrepo.com, Generator: SVG Repo Mixer Tools -->
<svg version="1.1" id="Capa_1" xmlns="http://www.w3.org/2000/svg" xmlns:xlink="http://www.w3.org/1999/xlink" 
	 viewBox="0 0 435.999 435.999" xml:space="preserve">
<g>
	<rect x="167.499" y="42.999" style="fill:#C6CDC9;" width="8.188" height="10"/>
	<path style="fill:#C6CDC9;" d="M148.397,113.749v9h26.766h0.001c15.831,0,26.206-2.569,30.036-4.5
		c-3.83-1.931-14.205-4.5-30.036-4.5H148.397z"/>
	<rect x="198.437" y="42.999" style="fill:#C6CDC9;" width="8.188" height="10"/>
	<path style="fill:#C6CDC9;" d="M175.163,176.749c15.831,0,26.206-2.569,30.036-4.5c-3.83-1.931-14.205-4.5-30.036-4.5h-26.767v9
		H175.163L175.163,176.749z"/>
	<path style="fill:#8EB1C4;" d="M120.293,426.999h195.413V149.705H120.293V426.999z M139.397,163.249c0-2.485,2.015-4.5,4.5-4.5
		h31.267c6.719,0,40.233,0.65,40.233,13.5c0,12.85-33.515,13.5-40.233,13.5h-0.001h-31.266c-2.485,0-4.5-2.015-4.5-4.5V163.249z"/>
	<rect x="229.374" y="42.999" style="fill:#C6CDC9;" width="8.188" height="10"/>
	<path style="fill:#8EB1C4;" d="M217.999,9c-64.833,0-97.706,7.906-97.706,23.499v108.206h195.413V34.499
		c0-0.344,0.038-0.679,0.111-1c-0.073-0.321-0.111-0.656-0.111-1C315.706,16.906,282.833,9,217.999,9z M158.499,38.499
		c0-2.485,2.015-4.5,4.5-4.5h17.188c2.485,0,4.5,2.015,4.5,4.5v19c0,2.485-2.015,4.5-4.5,4.5h-17.188c-2.485,0-4.5-2.015-4.5-4.5
		V38.499z M175.163,131.749L175.163,131.749h-31.267c-2.485,0-4.5-2.015-4.5-4.5v-18c0-2.485,2.015-4.5,4.5-4.5h31.267
		c6.719,0,40.233,0.65,40.233,13.5S181.882,131.749,175.163,131.749z M215.624,57.499c0,2.485-2.015,4.5-4.5,4.5h-17.188
		c-2.485,0-4.5-2.015-4.5-4.5v-19c0-2.485,2.015-4.5,4.5-4.5h17.188c2.485,0,4.5,2.015,4.5,4.5V57.499z M246.562,57.499
		c0,2.485-2.015,4.5-4.5,4.5h-17.188c-2.485,0-4.5-2.015-4.5-4.5v-19c0-2.485,2.015-4.5,4.5-4.5h17.188c2.485,0,4.5,2.015,4.5,4.5
		V57.499z M277.499,57.499c0,2.485-2.015,4.5-4.5,4.5h-17.188c-2.485,0-4.5-2.015-4.5-4.5v-19c0-2.485,2.015-4.5,4.5-4.5h17.188
		c2.485,0,4.5,2.015,4.5,4.5V57.499z"/>
	<rect x="260.312" y="42.999" style="fill:#C6CDC9;" width="8.188" height="10"/>
	<path style="fill:#7C5F53;" d="M217.999,0c-52.766,0-106.706,3.861-106.706,32.499v399c0,2.485,2.015,4.5,4.5,4.5h204.413
		c2.485,0,4.5-2.015,4.5-4.5v-397c0-0.344-0.038-0.679-0.111-1c0.073-0.321,0.111-0.656,0.111-1C324.706,3.861,270.765,0,217.999,0z
		 M315.706,426.999H120.293V149.705h195.413V426.999z M315.706,34.499v106.206H120.293V32.499C120.293,16.906,153.166,9,217.999,9
		c64.834,0,97.707,7.906,97.707,23.499c0,0.344,0.038,0.679,0.111,1C315.744,33.82,315.706,34.155,315.706,34.499z"/>
	<path style="fill:#7C5F53;" d="M175.163,104.749h-31.267c-2.485,0-4.5,2.015-4.5,4.5v18c0,2.485,2.015,4.5,4.5,4.5h31.266h0.001
		c6.719,0,40.233-0.65,40.233-13.5S181.882,104.749,175.163,104.749z M175.163,122.749L175.163,122.749h-26.767v-9h26.767
		c15.831,0,26.206,2.569,30.036,4.5C201.369,120.18,190.994,122.749,175.163,122.749z"/>
	<path style="fill:#7C5F53;" d="M143.897,185.749h31.266h0.001c6.719,0,40.233-0.65,40.233-13.5c0-12.85-33.515-13.5-40.233-13.5
		h-31.267c-2.485,0-4.5,2.015-4.5,4.5v18C139.397,183.734,141.411,185.749,143.897,185.749z M148.397,167.749h26.767
		c15.831,0,26.206,2.569,30.036,4.5c-3.83,1.931-14.205,4.5-30.036,4.5h-0.001h-26.766V167.749z"/>
	<path style="fill:#7C5F53;" d="M162.999,61.999h17.188c2.485,0,4.5-2.015,4.5-4.5v-19c0-2.485-2.015-4.5-4.5-4.5h-17.188
		c-2.485,0-4.5,2.015-4.5,4.5v19C158.499,59.984,160.514,61.999,162.999,61.999z M167.499,42.999h8.188v10h-8.188V42.999z"/>
	<path style="fill:#7C5F53;" d="M211.124,33.999h-17.188c-2.485,0-4.5,2.015-4.5,4.5v19c0,2.485,2.015,4.5,4.5,4.5h17.188
		c2.485,0,4.5-2.015,4.5-4.5v-19C215.624,36.014,213.609,33.999,211.124,33.999z M206.624,52.999h-8.188v-10h8.188V52.999z"/>
	<path style="fill:#7C5F53;" d="M242.062,33.999h-17.188c-2.485,0-4.5,2.015-4.5,4.5v19c0,2.485,2.015,4.5,4.5,4.5h17.188
		c2.485,0,4.5-2.015,4.5-4.5v-19C246.562,36.014,244.547,33.999,242.062,33.999z M237.562,52.999h-8.188v-10h8.188V52.999z"/>
	<path style="fill:#7C5F53;" d="M272.999,33.999h-17.188c-2.485,0-4.5,2.015-4.5,4.5v19c0,2.485,2.015,4.5,4.5,4.5h17.188
		c2.485,0,4.5-2.015,4.5-4.5v-19C277.499,36.014,275.484,33.999,272.999,33.999z M268.499,52.999h-8.188v-10h8.188V52.999z"/>
</g>
</svg>